<?xml version="1.0" standalone="no"?>
<!DOCTYPE svg PUBLIC "-//W3C//DTD SVG 1.1//EN" "http://www.w3.org/Graphics/SVG/1.1/DTD/svg11.dtd" >
<svg xmlns="http://www.w3.org/2000/svg">
<metadata>Generated by IcoMoon</metadata>
<defs>
<font id="icomoon" horiz-adv-x="1024">
<font-face units-per-em="1024" ascent="960" descent="-64" />
<missing-glyph horiz-adv-x="1024" />
<glyph unicode="&#x20;" horiz-adv-x="512" d="" />
<glyph unicode="&#xe905;" glyph-name="pencil2" d="M864 960c88.364 0 160-71.634 160-160 0-36.020-11.91-69.258-32-96l-64-64-224 224 64 64c26.742 20.090 59.978 32 96 32zM64 224l-64-288 288 64 592 592-224 224-592-592zM715.578 596.422l-448-448-55.156 55.156 448 448 55.156-55.156z" />
<glyph unicode="&#xe947;" glyph-name="location" d="M512 960c-176.732 0-320-143.268-320-320 0-320 320-704 320-704s320 384 320 704c0 176.732-143.27 320-320 320zM512 448c-106.040 0-192 85.96-192 192s85.96 192 192 192 192-85.96 192-192-85.96-192-192-192z" />
<glyph unicode="&#xe981;" glyph-name="spinner8" d="M512-64c-136.76 0-265.334 53.258-362.040 149.96-96.702 96.706-149.96 225.28-149.96 362.040 0 96.838 27.182 191.134 78.606 272.692 50 79.296 120.664 143.372 204.356 185.3l43-85.832c-68.038-34.084-125.492-86.186-166.15-150.67-41.746-66.208-63.812-142.798-63.812-221.49 0-229.382 186.618-416 416-416s416 186.618 416 416c0 78.692-22.066 155.282-63.81 221.49-40.66 64.484-98.114 116.584-166.15 150.67l43 85.832c83.692-41.928 154.358-106.004 204.356-185.3 51.422-81.558 78.604-175.854 78.604-272.692 0-136.76-53.258-265.334-149.96-362.040-96.706-96.702-225.28-149.96-362.040-149.96z" />
<glyph unicode="&#xea07;" glyph-name="warning" d="M512 867.226l429.102-855.226h-858.206l429.104 855.226zM512 960c-22.070 0-44.14-14.882-60.884-44.648l-437.074-871.112c-33.486-59.532-5-108.24 63.304-108.24h869.308c68.3 0 96.792 48.708 63.3 108.24h0.002l-437.074 871.112c-16.742 29.766-38.812 44.648-60.882 44.648v0zM576 128c0-35.346-28.654-64-64-64s-64 28.654-64 64c0 35.346 28.654 64 64 64s64-28.654 64-64zM512 256c-35.346 0-64 28.654-64 64v192c0 35.346 28.654 64 64 64s64-28.654 64-64v-192c0-35.346-28.654-64-64-64z" />
<glyph unicode="&#xf002;" glyph-name="day-cloudy" horiz-adv-x="1434" d="M0 346.5q0-72 35.25-133t95.75-96.25 132-35.25h577.5q71.5 0 132.5 35.25t96.5 96.25 35.5 133q0 53-22.5 106.5 61 74.5 61 176.5 0 57-22 108.75t-59.5 89.25-89.25 59.5-108.75 22q-118.5 0-207-93-62 35-144 35-112.5 0-199-69.75t-111-178.75q-89.5-20.5-146.25-92t-56.75-164zM91 346.5q0 67 44.75 115.5t112.25 56.5l26.5 1.5q10 0 10 9.5l3.5 29q11 86.5 75 144.75t150 58.25q88 0 153.25-58.5t73.25-144.5l4-31q2-9 11-9h86q70.5 0 121.5-51t51-121q0-72.5-50.75-123.75t-121.75-51.25h-577.5q-70 0-121 51.75t-51 123.25zM448.5 1001q0-19.5 13-33.5l35-34q20-15 34-13.5 16.5 0 29.5 13.75t13 33.25-14 31.5l-31.5 35q-14.5 13-32.5 13-19.5 0-33-13.25t-13.5-32.25zM733.5 765q55.5 53.5 130.5 53.5 79 0 134.25-55t55.25-134q0-50-27-98-77.5 76.5-186 76.5h-17q-20 87-90 157zM820 1046.5q0-20.5 12.5-33t31.5-12.5q20.5 0 33 12.5t12.5 33v109q0 19-12.75 31.5t-32.75 12.5q-19 0-31.5-12.5t-12.5-31.5v-109zM1114.5 924q0-20.5 12-33 17-13 33-13 14.5 0 31.5 13l76.5 76.5q13 14.5 13 34 0 19-13 32t-31.5 13q-19 0-31-13l-78.5-76.5q-12-14.5-12-33zM1157 293q0-19 13.5-33.5l34.5-33.5q12-13 31-13t31.75 13.25 12.75 33.25q0 18-13 31l-34.5 34.5q-13 13-30.5 13-19 0-32.25-13t-13.25-32zM1235 629.5q0-18.5 14-31 13-13 32.5-13h109q18.5 0 30.75 12.5t12.25 31.5-12.25 32.25-30.75 13.25h-109q-19 0-32.75-13.5t-13.75-32z" />
<glyph unicode="&#xf003;" glyph-name="search" horiz-adv-x="951" d="M658.286 475.428q0 105.714-75.143 180.857t-180.857 75.143-180.857-75.143-75.143-180.857 75.143-180.857 180.857-75.143 180.857 75.143 75.143 180.857zM950.857 0q0-29.714-21.714-51.429t-51.429-21.714q-30.857 0-51.429 21.714l-196 195.429q-102.286-70.857-228-70.857-81.714 0-156.286 31.714t-128.571 85.714-85.714 128.571-31.714 156.286 31.714 156.286 85.714 128.571 128.571 85.714 156.286 31.714 156.286-31.714 128.571-85.714 85.714-128.571 31.714-156.286q0-125.714-70.857-228l196-196q21.143-21.143 21.143-51.429z" />
<glyph unicode="&#xf00c;" glyph-name="check" d="M954.857 627.428q0-22.857-16-38.857l-491.429-491.429q-16-16-38.857-16t-38.857 16l-284.571 284.571q-16 16-16 38.857t16 38.857l77.714 77.714q16 16 38.857 16t38.857-16l168-168.571 374.857 375.429q16 16 38.857 16t38.857-16l77.714-77.714q16-16 16-38.857z" />
<glyph unicode="&#xf00d;" glyph-name="close, remove, times" horiz-adv-x="805" d="M741.714 195.428q0-22.857-16-38.857l-77.714-77.714q-16-16-38.857-16t-38.857 16l-168 168-168-168q-16-16-38.857-16t-38.857 16l-77.714 77.714q-16 16-16 38.857t16 38.857l168 168-168 168q-16 16-16 38.857t16 38.857l77.714 77.714q16 16 38.857 16t38.857-16l168-168 168 168q16 16 38.857 16t38.857-16l77.714-77.714q16-16 16-38.857t-16-38.857l-168-168 168-168q16-16 16-38.857z" />
<glyph unicode="&#xf00e;" glyph-name="day-sunny" horiz-adv-x="1134" d="M0 468q0 19.5 13.5 33 14 13 32 13h109q18.5 0 30.75-13.5t12.25-32.5-12.25-32.25-30.75-13.25h-109q-18.5 0-32 13.5t-13.5 32zM152.5 98.5q0 18.5 12.5 32.5l78.5 76q12 12.5 31.5 12.5 19 0 31.75-12t12.75-30.5q0-19.5-13-34l-76-76q-32.5-25.5-65.5 0-12.5 13.5-12.5 31.5zM152.5 837q0 18.5 12.5 32.5 15.5 13 34 13 17.5 0 31.5-13l76-78.5q13-12 13-31.5 0-19-12.75-31.75t-31.75-12.75q-19.5 0-31.5 13l-78.5 76q-12.5 13.5-12.5 33zM288.5 468q0 74.5 37.5 138.75t101.75 101.75 138.75 37.5q56 0 107.5-22.25t88.75-59.5 59.25-88.75 22-107.5q0-75-37.25-139t-101.25-101.25-139-37.25-139 37.25-101.5 101.25-37.5 139zM379 468q0-78 54.75-133.25t132.75-55.25 133.25 55.25 55.25 133.25q0 77-55.25 131.5t-133.25 54.5q-77.5 0-132.5-54.5t-55-131.5zM521 53.5q0 19 13.25 32t32.25 13q19.5 0 32.5-13t13-32v-106q0-19.5-13.25-33t-32.25-13.5-32.25 13.5-13.25 33v106zM521 880v109q0 18.5 13.5 32t32 13.5 32-13.5 13.5-32v-109q0-18.5-13.25-30.75t-32.25-12.25-32.25 12.25-13.25 30.75zM815.5 177q0 18.5 12 30 12 12.5 30 12.5 19.5 0 32-12.5l78-76q13-14 13-32.5t-13-31.5q-32-25-64 0l-76 76q-12 13.5-12 34zM815.5 759.5q0 20 12 31.5l76 78.5q14 13 31.5 13 19 0 32.25-13.5t13.25-32q0-20-13-33l-78-76q-14.5-13-32-13-18 0-30 12.75t-12 31.75zM936 468q0 19 13 33 13 13 30.5 13h108q18.5 0 32.25-13.75t13.75-32.25-13.75-32-32.25-13.5h-108q-18.5 0-31 13.25t-12.5 32.25z" />
<glyph unicode="&#xf013;" glyph-name="cog, gear" horiz-adv-x="878" d="M585.143 438.857q0 60.571-42.857 103.429t-103.429 42.857-103.429-42.857-42.857-103.429 42.857-103.429 103.429-42.857 103.429 42.857 42.857 103.429zM877.714 501.143v-126.857q0-6.857-4.571-13.143t-11.429-7.429l-105.714-16q-10.857-30.857-22.286-52 20-28.571 61.143-78.857 5.714-6.857 5.714-14.286t-5.143-13.143q-15.429-21.143-56.571-61.714t-53.714-40.571q-6.857 0-14.857 5.143l-78.857 61.714q-25.143-13.143-52-21.714-9.143-77.714-16.571-106.286-4-16-20.571-16h-126.857q-8 0-14 4.857t-6.571 12.286l-16 105.143q-28 9.143-51.429 21.143l-80.571-61.143q-5.714-5.143-14.286-5.143-8 0-14.286 6.286-72 65.143-94.286 96-4 5.714-4 13.143 0 6.857 4.571 13.143 8.571 12 29.143 38t30.857 40.286q-15.429 28.571-23.429 56.571l-104.571 15.429q-7.429 1.143-12 7.143t-4.571 13.429v126.857q0 6.857 4.571 13.143t10.857 7.429l106.286 16q8 26.286 22.286 52.571-22.857 32.571-61.143 78.857-5.714 6.857-5.714 13.714 0 5.714 5.143 13.143 14.857 20.571 56.286 61.429t54 40.857q7.429 0 14.857-5.714l78.857-61.143q25.143 13.143 52 21.714 9.143 77.714 16.571 106.286 4 16 20.571 16h126.857q8 0 14-4.857t6.571-12.286l16-105.143q28-9.143 51.429-21.143l81.143 61.143q5.143 5.143 13.714 5.143 7.429 0 14.286-5.714 73.714-68 94.286-97.143 4-4.571 4-12.571 0-6.857-4.571-13.143-8.571-12-29.143-38t-30.857-40.286q14.857-28.571 23.429-56l104.571-16q7.429-1.143 12-7.143t4.571-13.429z" />
<glyph unicode="&#xf014;" glyph-name="cloudy" horiz-adv-x="1185" d="M0 309.5q0 79.5 49.5 141.25t127 79.25q20.5 94 95 153.75t171.5 59.75q94.5 0 168.75-58.25t96.25-149.25h14.5q94 0 160.5-66.25t66.5-160.25-66.5-160.75-160.5-66.75h-495q-46 0-88.25 18t-72.75 48.5-48.5 72.75-18 88.25zM77.5 309.5q0-61 44-104.75t106-43.75h495q62 0 106 43.75t44 104.75-44 104.5-106 43.5h-74q-8 0-8 8l-3.5 26q-8 75.5-63.25 125.25t-130.75 49.75-131.25-50-62.75-125l-3.5-22.5q0-8-8.5-8l-24-3.5q-57.5-5-96.5-47.5t-39-100.5zM549.5 774.5q-8-7.5 4-11 34.5-15 57.5-29.5 9-2.5 12 1.5 48.5 46 113 46t111.75-43.25 52.75-106.75l5-34h75.5q52 0 89.5-37.25t37.5-88.75q0-48-33-83.5t-81.5-41q-8 0-8-8.5v-60.5q0-8.5 8-8.5 80.5 5 136 63.5t55.5 138.5q0 84.5-59.75 144.25t-144.25 59.75h-8q-21 80-87.75 131.75t-149.25 51.75q-113 0-186.5-84.5z" />
<glyph unicode="&#xf019;" glyph-name="rain" horiz-adv-x="1106" d="M0 346q0 92 57.5 163.75t145.5 92.25q25 109 112.5 179t200 70q110 0 196.25-68.25t112.25-175.25h17q71.5 0 132.5-34.75t96.5-95 35.5-131.75q0-70-33.75-130.25t-92.25-96.25-128-38q-10.5 0-10.5 9v71q0 9.5 10.5 9.5 68 3.5 116.25 54.5t48.25 120.5-52 120.75-123 51.25h-86q-9.5 0-9.5 9l-4 31q-9 86.5-74.25 144.75t-151.75 58.25q-87.5 0-152.25-58.25t-72.75-144.75l-4-28.5q0-10-10.5-10l-28-1.5q-66.5-8-111.75-57t-45.25-115q0-69.5 48-120.5t116.5-54.5q9 0 9-9.5v-71q0-9-9-9-107 5-181.25 81.5t-74.25 183zM285.5-10.5q0 3.5 2 10.5l87 307.5q5 15.5 17.25 23.5t24.75 8q5.5 0 13-1.5 19-3.5 28.75-19.5t4.25-35.5l-87-305.5q-10-34-44-34-3 0-6 1-4.5 1.5-5.5 1.5-17.5 5-26 17.75t-8.5 26.25zM425.5-160.5l130 468q3.5 15.5 16 23.5t26 8q7 0 14.5-1.5 17.5-5 26-20.75t3.5-34.25l-129.5-468.5q-3-13.5-15.5-23t-27-9.5q-7.5 0-13.5 2.5-16 4-27.5 21-9 14-3 34.5zM645.5-12q0 3 2 12l87 307.5q4.5 15.5 16.25 23.5t24.75 8q6.5 0 14-1.5 16.5-4.5 24.75-16.5t8.25-25q0-2.5-1-7.25t-1-6.25l-87-305.5q-3-15.5-15-24.75t-27-9.25l-13 2.5q-16 4.5-24.5 17.25t-8.5 25.25z" />
<glyph unicode="&#xf01a;" glyph-name="showers" horiz-adv-x="1109" d="M0 345q0 92.5 58 164.5t148.5 92.5q23.5 110 110.5 180.75t200 70.75q111.5 0 198.25-68t113.25-176h18q72 0 132.5-35.25t95.25-96.25 34.75-133q0-107-73.25-183.5t-179.75-80q-9.5 0-9.5 9v71.5q0 9 9.5 9 67.5 5.5 115.5 55.75t48 118.25q0 71.5-51 123t-122 51.5h-87q-9.5 0-11.5 9.5l-4 30.5q-5.5 57-37.25 103.25t-81.75 72.5-108 26.25q-88 0-152.75-58.25t-73.25-145.25l-3.5-29q0-7.5-8.5-7.5l-28-4q-67.5-5.5-112.75-55t-45.25-117.5q0-69.5 47.25-119.75t115.75-54.25q9.5 0 9.5-9v-71.5q0-9-9.5-9-52.5 2.5-100 24t-81.75 56.5-54.25 82.75-20 100.25zM289-16q0 2.5 1 7t1 6l14.5 55q5.5 18 21.25 27.25t34.25 3.75q18-5.5 27.5-21.25t4-34.25l-13-54q-10.5-35-40.5-35-2 0-4.75 0.25t-6 0.75-5.25 0.5q-17 5-25.5 18.25t-8.5 25.75zM359.5 241q0 2 0.75 6t0.75 5l16 56q5 15.5 17 23.75t25 8.25q2 0 4.25-0.25t5-0.75 4.25-0.5q18-5.5 27.25-21.25t3.75-34.25l-13-53.5q-5.5-22-21.5-31.25t-34.5-1.25q-17.5 5-26.25 18t-8.75 26zM425-183q0 2.5 1 6.75t1 6.25l15.5 53q5 19 21.25 28.75t34.75 4.25q18-5.5 27-21.75t3.5-34.75l-13.5-55.5q-8.5-32.5-42.5-32.5-4 0-13 2-17.5 3-26.25 16.25t-8.75 27.25zM496.5 71.5q0 4.5 2 13.5l14.5 55q5.5 18 21.75 27.25t34.75 3.75q18-5 27-20.75t3-34.75l-13-53q-10-36-38.5-36-3.5 0-16.5 3-17.5 3.5-26.25 15.75t-8.75 26.25zM647-18q0 5.5 1.5 13l15 53q5.5 19 21.75 28.75t33.75 4.75q18.5-5.5 28.25-21.75t4.75-33.75l-15.5-56.5q-8-32.5-42-32.5-7.5 0-14 1.5-16 3-24.5 16.25t-9 27.25zM720.5 236q0 2.5 2.5 14l16 55q3 17 15.5 25.25t26 7.25q3.5 0.5 13-1.5 17.5-4 27.5-20.5 9.5-13.5 4-34.5l-13-55q-10.5-34.5-40.5-34.5-5 0-18 3-16.5 5-24.75 16.75t-8.25 24.75z" />
<glyph unicode="&#xf01b;" glyph-name="snow" horiz-adv-x="1106" d="M0 344q0 92.5 56.75 164.25t146.25 93.75q25 109 112.25 179t200.25 70q110 0 196.25-68.25t112.25-175.25h17q71.5 0 132.5-35.25t96.5-96 35.5-132.25q0-106-74-182.5t-180-80q-10.5 0-10.5 9v71q0 9.5 10.5 9.5 68 3.5 116.25 54.25t48.25 118.75q0 71-51.5 122.5t-123.5 51.5h-86q-9.5 0-9.5 9l-4 31q-9 86.5-74.25 145t-151.75 58.5q-88 0-152.75-59t-73.25-146.5l-3-26.5q0-10-10.5-10l-28-3.5q-66.5-5.5-111.75-55.25t-45.25-116.75q0-68 48.25-118.75t116.25-54.25q9 0 9-9.5v-71q0-9-9-9-107 3.5-181.25 80t-74.25 182.5zM339.5 127q0 18 12.75 31t31.25 13 31.25-13 12.75-31q0-19-12.75-32.25t-31.25-13.25-31.25 13.25-12.75 32.25zM339.5-66.5q0 19 13 32 12.5 12 31 12t31.25-12.5 12.75-31.5-12.75-31.5-31.25-12.5-31.25 12.5-12.75 31.5zM509.5 24q0 18.5 13.5 33 13 13 30.5 13 18.5 0 32.25-13.75t13.75-32.25-13.5-31.75-32.5-13.25q-18 0-31 13.25t-13 31.75zM509.5 217q0 18.5 13.5 32 14 13 30.5 13 19 0 32.5-13.25t13.5-31.75-13.5-31.25-32.5-12.75q-18 0-31 12.75t-13 31.25zM509.5-171q0 18 13.5 32.5 13 13 30.5 13 19 0 32.5-13.5t13.5-32-13.5-31.25-32.5-12.75q-18 0-31 12.75t-13 31.25zM681.5 127q0 17.5 13.5 30.75t32 13.25 31.25-13 12.75-31q0-19-12.75-32.25t-31.25-13.25q-19 0-32.25 13.5t-13.25 32zM681.5-66.5q0 17.5 13.5 32 13 12 32 12t31.5-12.5 12.5-31.5-12.5-31.5-31.5-12.5-32.25 12.75-13.25 31.25z" />
<glyph unicode="&#xf01c;" glyph-name="sprinkle" horiz-adv-x="1105" d="M0 346q0 92 57.5 163.75t145.5 92.25q24.5 109 112 178.75t200.5 69.75q110 0 196-68t112.5-175h16.5q71.5 0 132.5-34.75t96.5-95 35.5-131.75q0-107-73.75-184t-180.25-80.5q-10.5 0-10.5 9v71q0 9.5 10.5 9.5 68.5 3.5 116.5 54.5t48 120.5-52 120.75-123 51.25h-85.5q-10 0-10 9l-3.5 31q-8.5 86-73.75 144.5t-152.25 58.5q-87.5 0-152.5-58.25t-73.5-144.75l-3-29q0-9.5-10.5-9.5l-28-1.5q-65.5-3-111.25-53.5t-45.75-118.5q0-69.5 48-120.5t116.5-54.5q9 0 9-9.5v-71q0-9-9-9-107 5-181.25 81.5t-74.25 183zM316 299q0 19.5 19.5 52.75t36.5 53.75q17 19 20.5 22.5l19-21.5q20.5-22 38.25-54.25t17.75-53.25q0-31.5-21.5-52.5t-53.5-21q-31.5 0-54 21.5t-22.5 52zM475 86.5q0 22 12.75 51t31.25 54.5q14.5 20.5 35.5 44.75t32 34.75q5.5 5 13 12.5l13-12.5q30-26.5 68-78 19-26.5 31.5-55.5t12.5-51.5q0-51.5-36.25-87.75t-88.75-36.25q-51.5 0-88 36t-36.5 88zM553.5 441.5q0 33.5 52 85.5l13-13.5q14-17 25.5-37.75t11.5-34.25q0-20.5-14.75-35.25t-35.25-14.75q-21.5 0-36.75 14.75t-15.25 35.25z" />
<glyph unicode="&#xf01e;" glyph-name="thunderstorm" horiz-adv-x="1107" d="M0 346q0-88.5 53-158.5t137.5-95.5l-35-89.5q-2.5-11.5 7.5-11.5h113.5l-52.5-229.5h15l209 306.5q3 3.5 0.75 7.25t-7.75 3.75h-116l132 247.5q5.5 11.5-7.5 11.5h-157q-7.5 0-12.5-8l-57-153q-57 14.5-94.5 62t-37.5 107q0 66.5 45.25 115.5t112.25 57l28 3.5q10.5 0 10.5 9.5l3.5 27q8.5 86.5 73.25 145t152.25 58.5q87 0 152.25-58.5t74.75-145l3.5-31q0-9 9.5-9h85.5q72.5 0 124-50.75t51.5-121.75q0-68-47.5-117.75t-117.5-55.25q-10.5 0-10.5-9.5v-73q0-9 10.5-9 106.5 3.5 180.75 80.5t74.25 184q0 72-35.5 132.75t-96.75 96-133.25 35.25h-16.5q-26.5 106.5-112.75 174t-196.25 67.5q-113 0-200.5-70t-112-179q-88.5-20.5-146-92.25t-57.5-164.25zM434.5-172q0-31.5 31-41 1 0 6-0.75t7.5-0.75q13.5 0 26.25 7.75t17.25 25.75l120 463.5q5 19-3.5 34.5t-26.5 21q-13.5 1.5-14 1.5-13 0-25.25-8t-16.75-24l-120.5-465q-1.5-7-1.5-14.5zM656-8.5q0-10.5 5.5-20 11-17.5 27-23.5 8.5-2.5 16-2.5t17 4q16.5 7 22.5 30.5l77 302.5q2.5 11.5 2.5 14.5 0 12-8.5 24t-24.5 17q-13.5 1.5-14 1.5-13.5 0-25-7.75t-16-24.25l-78-304q0-1.5-0.75-5.75t-0.75-6.25z" />
<glyph unicode="&#xf021;" glyph-name="refresh" horiz-adv-x="878" d="M863.429 347.428q0-2.857-0.571-4-36.571-153.143-153.143-248.286t-273.143-95.143q-83.429 0-161.429 31.429t-139.143 89.714l-73.714-73.714q-10.857-10.857-25.714-10.857t-25.714 10.857-10.857 25.714v256q0 14.857 10.857 25.714t25.714 10.857h256q14.857 0 25.714-10.857t10.857-25.714-10.857-25.714l-78.286-78.286q40.571-37.714 92-58.286t106.857-20.571q76.571 0 142.857 37.143t106.286 102.286q6.286 9.714 30.286 66.857 4.571 13.143 17.143 13.143h109.714q7.429 0 12.857-5.429t5.429-12.857zM877.714 804.571v-256q0-14.857-10.857-25.714t-25.714-10.857h-256q-14.857 0-25.714 10.857t-10.857 25.714 10.857 25.714l78.857 78.857q-84.571 78.286-199.429 78.286-76.571 0-142.857-37.143t-106.286-102.286q-6.286-9.714-30.286-66.857-4.571-13.143-17.143-13.143h-113.714q-7.429 0-12.857 5.429t-5.429 12.857v4q37.143 153.143 154.286 248.286t274.286 95.143q83.429 0 162.286-31.714t140-89.429l74.286 73.714q10.857 10.857 25.714 10.857t25.714-10.857 10.857-25.714z" />
<glyph unicode="&#xf02e;" glyph-name="night-clear" horiz-adv-x="756" d="M0 475.5q0 76.5 30 146.5t80.75 120.75 121 81 146.75 30.25h61q12.5-3.5 12.5-15l2.5-47q3-101.5 73-173t170-75.5l44-3.5q13 0 13-12.5v-52q0.5-102.5-49.75-189.75t-137-138-189.25-50.75q-78 0-148.25 30t-120.5 80.75-80 120.75-29.75 147zM97.5 475.5q0-61 24.25-115t63.5-90.5 90-57.75 103.25-21.25q46.5 0 93.75 18.25t87.75 51 69.75 83.75 37.75 111.5q-130.5 27-209.25 111.75t-90.75 199.25q-75.5-4-138.25-46.5t-97.25-107.75-34.5-136.75z" />
<glyph unicode="&#xf031;" glyph-name="night-cloudy" horiz-adv-x="1141" d="M0 347q0-71.5 35-132.25t95.5-96.25 132-35.5h576.5q71.5 0 132.25 35.5t96.25 96.25 35.5 132.25q0 51-22.5 106.5 60.5 74 60.5 176 0 76-37 140.25t-101.25 101.75-140.25 37.5q-119.5 0-206.5-93-61 34.5-143.5 34.5-112.5 0-198.75-69.5t-110.75-178.5q-89.5-20-146.25-91.5t-56.75-164zM91 347q0 66.5 44.5 115t112 56.5l36.5 1.5 3.5 38.5q11 86.5 75 144.75t150 58.25q87.5 0 152.5-58.5t73.5-144.5l5.5-40h95q70.5 0 121.5-50.75t51-120.75q0-72-50.75-123.5t-121.75-51.5h-576.5q-69.5 0-120.5 52t-51 123zM732.5 765q55 53 130 53 79 0 134.25-54.75t55.25-133.75q0-49.5-27.5-98-76.5 76.5-185.5 76.5h-16.5q-22 89-90 157z" />
<glyph unicode="&#xf040;" glyph-name="pencil" horiz-adv-x="866" d="M207.429 73.143l52 52-134.286 134.286-52-52v-61.143h73.143v-73.143h61.143zM506.286 603.428q0 12.571-12.571 12.571-5.714 0-9.714-4l-309.714-309.714q-4-4-4-9.714 0-12.571 12.571-12.571 5.714 0 9.714 4l309.714 309.714q4 4 4 9.714zM475.429 713.143l237.714-237.714-475.429-475.429h-237.714v237.714zM865.714 658.286q0-30.286-21.143-51.429l-94.857-94.857-237.714 237.714 94.857 94.286q20.571 21.714 51.429 21.714 30.286 0 52-21.714l134.286-133.714q21.143-22.286 21.143-52z" />
<glyph unicode="&#xf044;" glyph-name="edit, pencil-square-o" horiz-adv-x="1019" d="M507.429 274.286l66.286 66.286-86.857 86.857-66.286-66.286v-32h54.857v-54.857h32zM758.857 685.714q-9.143 9.143-18.857-0.571l-200-200q-9.714-9.714-0.571-18.857t18.857 0.571l200 200q9.714 9.714 0.571 18.857zM804.571 346.286v-108.571q0-68-48.286-116.286t-116.286-48.286h-475.429q-68 0-116.286 48.286t-48.286 116.286v475.429q0 68 48.286 116.286t116.286 48.286h475.429q36 0 66.857-14.286 8.571-4 10.286-13.143 1.714-9.714-5.143-16.571l-28-28q-8-8-18.286-4.571-13.143 3.429-25.714 3.429h-475.429q-37.714 0-64.571-26.857t-26.857-64.571v-475.429q0-37.714 26.857-64.571t64.571-26.857h475.429q37.714 0 64.571 26.857t26.857 64.571v72q0 7.429 5.143 12.571l36.571 36.571q8.571 8.571 20 4t11.429-16.571zM749.714 768l164.571-164.571-384-384h-164.571v164.571zM1003.429 692.571l-52.571-52.571-164.571 164.571 52.571 52.571q16 16 38.857 16t38.857-16l86.857-86.857q16-16 16-38.857t-16-38.857z" />
<glyph unicode="&#xf045;" glyph-name="direction-down" horiz-adv-x="345" d="M0 369.5q0-17.5 13.5-29.5l128-130.5q12.5-12.5 31-12.5 19 0 31.5 12.5l128 130.5q13 11.5 13 29.5t-12 30.25-30 12.25-30.5-12.5l-56.5-56v351.5q0 18-12.75 30t-30.75 12-30.75-12-12.75-30v-351.5l-56.5 56q-12.5 12.5-29.5 12.5-18 0-30.5-12.25t-12.5-30.25z" />
<glyph unicode="&#xf058;" glyph-name="direction-up" horiz-adv-x="346" d="M0.5 589q-0.5-18 11.75-30.75t30.25-12.25q17.5-1 30 12.5l56.5 56v-351.5q-0.5-18 12.25-30t31.25-11.5q17.5-1 30.5 11t13.5 30v351.5l56-56q12-12.5 30-12.5 18.5 0 30.75 12.25t12.25 30.25q-1 18.5-13.5 29l-127.5 131q-12.5 12-31.5 13.5-19-1-31.5-14l-128-130q-13-11-13-28.5z" />
<glyph unicode="&#xf071;" glyph-name="exclamation-triangle, warning2" d="M585.143 165.143v108.571q0 8-5.429 13.429t-12.857 5.429h-109.714q-7.429 0-12.857-5.429t-5.429-13.429v-108.571q0-8 5.429-13.429t12.857-5.429h109.714q7.429 0 12.857 5.429t5.429 13.429zM584 378.857l10.286 262.286q0 6.857-5.714 10.857-7.429 6.286-13.714 6.286h-125.714q-6.286 0-13.714-6.286-5.714-4-5.714-12l9.714-261.143q0-5.714 5.714-9.429t13.714-3.714h105.714q8 0 13.429 3.714t6 9.429zM576 912.571l438.857-804.571q20-36-1.143-72-9.714-16.571-26.571-26.286t-36.286-9.714h-877.714q-19.429 0-36.286 9.714t-26.571 26.286q-21.143 36-1.143 72l438.857 804.571q9.714 17.714 26.857 28t37.143 10.286 37.143-10.286 26.857-28z" />
<glyph unicode="&#xf074;" glyph-name="random" d="M380.571 676q-34.286-52.571-78.286-156-12.571 25.714-21.143 41.429t-23.143 36.286-29.143 32.286-36 20-46.571 8.286h-128q-8 0-13.143 5.143t-5.143 13.143v109.714q0 8 5.143 13.143t13.143 5.143h128q142.857 0 234.286-128.571zM1024 219.428q0-8-5.143-13.143l-182.857-182.857q-5.143-5.143-13.143-5.143-7.429 0-12.857 5.429t-5.429 12.857v109.714q-18.286 0-48.571-0.286t-46.286-0.571-41.714 0.571-40.571 2.857-36.571 6-36 10.571-33.143 16.286-33.714 22.857-31.429 30.571-32 39.714q33.714 53.143 77.714 156 12.571-25.714 21.143-41.429t23.143-36.286 29.143-32.286 36-20 46.571-8.286h146.286v109.714q0 8 5.143 13.143t13.143 5.143q6.857 0 13.714-5.714l182.286-182.286q5.143-5.143 5.143-13.143zM1024 731.428q0-8-5.143-13.143l-182.857-182.857q-5.143-5.143-13.143-5.143-7.429 0-12.857 5.429t-5.429 12.857v109.714h-146.286q-27.429 0-49.714-8.571t-39.429-25.714-29.143-35.143-25.714-44.286q-18.286-35.429-44.571-97.714-16.571-37.714-28.286-63.429t-30.857-60-36.571-57.143-42.286-47.429-51.429-39.143-60.857-24-73.143-9.429h-128q-8 0-13.143 5.143t-5.143 13.143v109.714q0 8 5.143 13.143t13.143 5.143h128q27.429 0 49.714 8.571t39.429 25.714 29.143 35.143 25.714 44.286q18.286 35.429 44.571 97.714 16.571 37.714 28.286 63.429t30.857 60 36.571 57.143 42.286 47.429 51.429 39.143 60.857 24 73.143 9.429h146.286v109.714q0 8 5.143 13.143t13.143 5.143q6.857 0 13.714-5.714l182.286-182.286q5.143-5.143 5.143-13.143z" />
<glyph unicode="&#xf082;" glyph-name="facebook-square" horiz-adv-x="878" d="M713.143 877.714q68 0 116.286-48.286t48.286-116.286v-548.571q0-68-48.286-116.286t-116.286-48.286h-107.429v340h113.714l17.143 132.571h-130.857v84.571q0 32 13.429 48t52.286 16l69.714 0.571v118.286q-36 5.143-101.714 5.143-77.714 0-124.286-45.714t-46.571-129.143v-97.714h-114.286v-132.571h114.286v-340h-304q-68 0-116.286 48.286t-48.286 116.286v548.571q0 68 48.286 116.286t116.286 48.286h548.571z" />
<glyph unicode="&#xf099;" glyph-name="twitter" horiz-adv-x="951" d="M925.714 717.714q-38.286-56-92.571-95.429 0.571-8 0.571-24 0-74.286-21.714-148.286t-66-142-105.429-120.286-147.429-83.429-184.571-31.143q-154.857 0-283.429 82.857 20-2.286 44.571-2.286 128.571 0 229.143 78.857-60 1.143-107.429 36.857t-65.143 91.143q18.857-2.857 34.857-2.857 24.571 0 48.571 6.286-64 13.143-106 63.714t-42 117.429v2.286q38.857-21.714 83.429-23.429-37.714 25.143-60 65.714t-22.286 88q0 50.286 25.143 93.143 69.143-85.143 168.286-136.286t212.286-56.857q-4.571 21.714-4.571 42.286 0 76.571 54 130.571t130.571 54q80 0 134.857-58.286 62.286 12 117.143 44.571-21.143-65.714-81.143-101.714 53.143 5.714 106.286 28.571z" />
<glyph unicode="&#xf0d0;" glyph-name="magic" horiz-adv-x="966" d="M680 618.857l167.429 167.429-61.143 61.143-167.429-167.429zM935.429 786.286q0-15.429-10.286-25.714l-734.857-734.857q-10.286-10.286-25.714-10.286t-25.714 10.286l-113.143 113.143q-10.286 10.286-10.286 25.714t10.286 25.714l734.857 734.857q10.286 10.286 25.714 10.286t25.714-10.286l113.143-113.143q10.286-10.286 10.286-25.714zM163.429 894.857l56-17.143-56-17.143-17.143-56-17.143 56-56 17.143 56 17.143 17.143 56zM363.429 802.286l112-34.286-112-34.286-34.286-112-34.286 112-112 34.286 112 34.286 34.286 112zM894.857 529.143l56-17.143-56-17.143-17.143-56-17.143 56-56 17.143 56 17.143 17.143 56zM529.143 894.857l56-17.143-56-17.143-17.143-56-17.143 56-56 17.143 56 17.143 17.143 56z" />
</font>
</defs>
</svg>
